<svg width="700" height="288" viewBox="0 0 700 288" fill="none" xmlns="http://www.w3.org/2000/svg">
<path d="M22.4609 201C17.9036 201 15.625 198.559 15.625 193.676L15.625 68.2852C15.625 63.4023 17.9036 60.9609 22.4609 60.9609L99.707 60.9609C104.59 60.9609 107.031 63.0768 107.031 67.3086L107.031 78.832C107.031 83.0638 104.59 85.1797 99.707 85.1797L44.1406 85.1797L44.1406 119.164L91.6992 119.164C96.582 119.164 99.0234 121.28 99.0234 125.512L99.0234 137.035C99.0234 141.267 96.582 143.383 91.6992 143.383L44.1406 143.383L44.1406 193.676C44.1406 198.559 41.862 201 37.3047 201L22.4609 201ZM122.656 149.73C122.656 133.129 126.921 120.108 135.449 110.668C144.043 101.228 156.803 96.5078 173.73 96.5078C190.658 96.5078 203.385 101.228 211.914 110.668C220.508 120.108 224.805 133.129 224.805 149.73C224.805 166.332 220.508 179.353 211.914 188.793C203.385 198.233 190.658 202.953 173.73 202.953C156.803 202.953 144.043 198.233 135.449 188.793C126.921 179.353 122.656 166.332 122.656 149.73ZM151.563 149.73C151.563 162.1 153.451 170.889 157.227 176.098C161.068 181.241 166.569 183.812 173.73 183.812C180.892 183.812 186.361 181.241 190.137 176.098C193.978 170.889 195.898 162.1 195.898 149.73C195.898 137.361 193.978 128.604 190.137 123.461C186.361 118.253 180.892 115.648 173.73 115.648C166.569 115.648 161.068 118.253 157.227 123.461C153.451 128.604 151.563 137.361 151.563 149.73ZM240.43 149.73C240.43 133.129 244.694 120.108 253.223 110.668C261.816 101.228 274.577 96.5078 291.504 96.5078C308.431 96.5078 321.159 101.228 329.688 110.668C338.281 120.108 342.578 133.129 342.578 149.73C342.578 166.332 338.281 179.353 329.688 188.793C321.159 198.233 308.431 202.953 291.504 202.953C274.577 202.953 261.816 198.233 253.223 188.793C244.694 179.353 240.43 166.332 240.43 149.73ZM269.336 149.73C269.336 162.1 271.224 170.889 275 176.098C278.841 181.241 284.342 183.812 291.504 183.812C298.665 183.812 304.134 181.241 307.91 176.098C311.751 170.889 313.672 162.1 313.672 149.73C313.672 137.361 311.751 128.604 307.91 123.461C304.134 118.253 298.665 115.648 291.504 115.648C284.342 115.648 278.841 118.253 275 123.461C271.224 128.604 269.336 137.361 269.336 149.73ZM358.203 149.73C358.203 135.408 361.296 122.973 367.48 112.426C373.73 101.814 384.505 96.5078 399.805 96.5078C405.664 96.5078 410.677 97.3542 414.844 99.0469C419.01 100.74 422.786 104.385 426.172 109.984L426.563 109.984C426.302 107.38 426.172 104.776 426.172 102.172L426.172 62.7187C426.172 58.8125 428.125 56.8594 432.031 56.8594L447.656 56.8594C451.563 56.8594 453.516 58.8125 453.516 62.7187L453.516 195.141C453.516 199.047 451.563 201 447.656 201L432.227 201C428.971 201 427.214 199.047 426.953 195.141L426.563 189.477L426.172 189.477C422.786 195.076 419.01 198.721 414.844 200.414C410.677 202.107 405.664 202.953 399.805 202.953C384.505 202.953 373.73 197.68 367.48 187.133C361.296 176.521 358.203 164.053 358.203 149.73ZM387.109 149.73C387.109 160.147 388.444 168.448 391.113 174.633C393.848 180.753 399.609 183.812 408.398 183.812C413.281 183.812 417.448 181.078 420.898 175.609C424.414 170.076 426.172 162.914 426.172 154.125L426.172 145.336C426.172 136.547 424.414 129.418 420.898 123.949C417.448 118.415 413.281 115.648 408.398 115.648C399.609 115.648 393.848 118.741 391.113 124.926C388.444 131.046 387.109 139.314 387.109 149.73ZM485.938 201C482.031 201 480.078 199.047 480.078 195.141L480.078 104.32C480.078 100.414 482.031 98.4609 485.938 98.4609L501.563 98.4609C505.469 98.4609 507.422 100.414 507.422 104.32L507.422 195.141C507.422 199.047 505.469 201 501.563 201L485.938 201ZM485.938 83.4219C482.031 83.4219 480.078 81.4687 480.078 77.5625L480.078 65.0625C480.078 61.1562 482.031 59.2031 485.938 59.2031L501.563 59.2031C505.469 59.2031 507.422 61.1562 507.422 65.0625L507.422 77.5625C507.422 81.4687 505.469 83.4219 501.563 83.4219L485.938 83.4219ZM543.164 201C538.607 201 536.328 198.559 536.328 193.676L536.328 68.2852C536.328 63.4023 538.607 60.9609 543.164 60.9609L620.41 60.9609C625.293 60.9609 627.734 63.0768 627.734 67.3086L627.734 78.832C627.734 83.0638 625.293 85.1797 620.41 85.1797L564.844 85.1797L564.844 119.164L612.402 119.164C617.285 119.164 619.727 121.28 619.727 125.512L619.727 137.035C619.727 141.267 617.285 143.383 612.402 143.383L564.844 143.383L564.844 193.676C564.844 198.559 562.565 201 558.008 201L543.164 201ZM654.688 201C650.781 201 648.828 199.047 648.828 195.141L648.828 104.32C648.828 100.414 650.781 98.4609 654.688 98.4609L670.313 98.4609C674.219 98.4609 676.172 100.414 676.172 104.32L676.172 195.141C676.172 199.047 674.219 201 670.313 201L654.688 201ZM654.688 83.4219C650.781 83.4219 648.828 81.4687 648.828 77.5625L648.828 65.0625C648.828 61.1562 650.781 59.2031 654.688 59.2031L670.313 59.2031C674.219 59.2031 676.172 61.1562 676.172 65.0625L676.172 77.5625C676.172 81.4687 674.219 83.4219 670.313 83.4219L654.688 83.4219Z" fill="#383554"/>
<ellipse cx="174" cy="121" rx="42" ry="23" fill="#383554"/>
<ellipse cx="155.5" cy="106.5" rx="11.5" ry="21.5" fill="#383554"/>
<ellipse cx="192.5" cy="106.5" rx="11.5" ry="21.5" fill="#383554"/>
</svg>
